<svg width="104" height="88" viewBox="0 0 104 88" fill="none" xmlns="http://www.w3.org/2000/svg">
<path fill-rule="evenodd" clip-rule="evenodd" d="M104 44C104 68.3007 80.719 88 52 88C23.2812 88 0 68.3007 0 44C0 19.6995 23.2812 0 52 0C80.719 0 104 19.6995 104 44ZM38.1335 36.5039C43.026 36.5039 46.9926 33.1476 46.9926 29.0073C46.9926 24.8675 43.026 21.5111 38.1335 21.5111C33.2405 21.5111 29.274 24.8675 29.274 29.0073C29.274 33.1476 33.2405 36.5039 38.1335 36.5039ZM65.8665 36.5039C70.7595 36.5039 74.726 33.1476 74.726 29.0073C74.726 24.8675 70.7595 21.5111 65.8665 21.5111C60.974 21.5111 57.0074 24.8675 57.0074 29.0073C57.0074 33.1476 60.974 36.5039 65.8665 36.5039ZM52.3851 59.3185C40.4724 59.3185 30.8149 51.1468 30.8149 41.0668H21.5704C21.5704 55.4669 35.3668 67.1409 52.3851 67.1409C69.4039 67.1409 83.2 55.4669 83.2 41.0668H73.9554C73.9554 51.1468 64.2983 59.3185 52.3851 59.3185Z" fill="white"/>
</svg>
